# xmcd CD database file
#
# Track frame offsets:
#	152
#	9720
#	20787
#	34810
#	51845
#	62355
#	77027
#	87292
#	103002
#	112955
#
# Disc length: 1626 seconds
#
# Revision: 1
# Processed by: cddbd v1.5.2PL0 Copyright (c) Steve Scherf et al.
# Submitted via: jetAudio 7
#
DISCID=7706580a
DTITLE=Floyd Cramer - Floyd Cramer - Super Hits
DYEAR=1996
DGENRE=Instrumental
TTITLE0=Stood Up
TTITLE1=Last Date
TTITLE2=Maple Leaf Rag
TTITLE3=Georgia On My Mind
TTITLE4=San Antonio Rose
TTITLE5=Rhythm Of The Rain
TTITLE6=Today I Started Loving You Again
TTITLE7=The Gambler
TTITLE8=Help Me Make It Through The Night
TTITLE9=Dallas
EXTD=
EXTT0=
EXTT1=
EXTT2=
EXTT3=
EXTT4=
EXTT5=
EXTT6=
EXTT7=
EXTT8=
EXTT9=
PLAYORDER=
